:version 1.10
:name ASF
:units
  mass 1
  length 1
  angle deg
:documentation
  ASF file generated by Kaydara
:root
  axis xyz
  order  tx ty tz rx ry rz
  position 0 0 0
  orientation 0 0 0
:bonedata
  begin
    id 1
    name LeftUpLegDummy
    direction 1 -2.30186e-007 -8.31532e-007
    length 2.93387
    axis 0 0 0 xyz
  end
  begin
    id 2
    name LeftUpLeg
    direction -1.82929e-007 -1 -1.48925e-009
    length 17.3336
    axis -3.48766 0.00143442 -0.000521554 xyz
    dof rx ry rz
  end
  begin
    id 3
    name LeftLeg
    direction -1.82929e-007 -1 -5.23717e-011
    length 14.9995
    axis 3.68178 -0.00654042 -0.000282425 xyz
    dof rx ry rz
  end
  begin
    id 4
    name LeftFoot
    direction 8.31532e-007 -4.54534e-011 1
    length 6.74421
    axis 1.87234e-006 4.66016e-005 -5.96866e-006 xyz
    dof rx ry rz
  end
  begin
    id 5
    name LeftToes
    direction 0.00818058 -0.00485161 0.999955
    length 3.85048
    axis 1.06247e-005 4.65869e-005 -5.96999e-006 xyz
    dof rx ry rz
  end
  begin
    id 6
    name SpineDummy
    direction -5.8607e-008 0.943407 -0.331637
    length 5.93572
    axis 0 0 0 xyz
  end
  begin
    id 7
    name Spine
    direction -1.04988e-007 0.999988 0.00495137
    length 10.1015
    axis -0.001389 0.000121417 6.61666e-006 xyz
    dof rx ry rz
  end
  begin
    id 8
    name Spine1
    direction 0 0 0
    length 0
    axis -0.001389 0.00012144 6.56766e-006 xyz
    dof rx ry rz
  end
  begin
    id 9
    name RightShoulderDummy
    direction -0.98348 0.17941 -0.0240696
    length 3.59882
    axis -0.001389 0.00012144 6.56766e-006 xyz
  end
  begin
    id 10
    name RightShoulder
    direction -0.978693 0.204882 0.0135597
    length 2.70001
    axis 0.215806 0.000203631 -0.00679732 xyz
    dof rx ry rz
  end
  begin
    id 11
    name RightArm
    direction -1 3.85509e-006 8.31394e-007
    length 10.2459
    axis -23.2009 -0.134239 -0.964098 xyz
    dof rx ry rz
  end
  begin
    id 12
    name RightForeArm
    direction -1 3.85569e-006 8.3129e-007
    length 8.16799
    axis -9.92322 0.0658061 0.17887 xyz
    dof rx ry rz
  end
  begin
    id 13
    name RightHand
    direction -0.992843 -0.0414604 0.112003
    length 5.28593
    axis -0.00960638 0.00330669 -0.185225 xyz
    dof rx ry rz
  end
  begin
    id 14
    name LeftShoulder1Dummy
    direction 0.983523 0.179172 -0.0240748
    length 3.59866
    axis -0.001389 0.00012144 6.56766e-006 xyz
  end
  begin
    id 15
    name LeftShoulder1
    direction 0.978627 0.205195 0.0135605
    length 2.70019
    axis -0.001389 0.00012144 6.57583e-006 xyz
    dof rx ry rz
  end
  begin
    id 16
    name LeftArm
    direction 1 3.51895e-006 -8.60188e-007
    length 10.2459
    axis -23.1894 0.134785 0.967513 xyz
    dof rx ry rz
  end
  begin
    id 17
    name LeftForeArm
    direction 1 3.51921e-006 -7.32029e-007
    length 8.16799
    axis -9.91835 -0.0656957 -0.177789 xyz
    dof rx ry rz
  end
  begin
    id 18
    name LeftHand
    direction 0.992938 -0.0411636 0.11126
    length 5.32135
    axis -0.00960237 -0.00340661 0.185177 xyz
    dof rx ry rz
  end
  begin
    id 19
    name HEadDummy
    direction 1.01974e-006 0.999861 -0.016675
    length 2.99946
    axis -0.001389 0.00012144 6.56766e-006 xyz
  end
  begin
    id 20
    name HEad
    direction -0.0222689 0.980941 0.193023
    length 5.12695
    axis -0.001389 0.00012144 6.56766e-006 xyz
    dof rx ry rz
  end
  begin
    id 21
    name RightUpLegDummy
    direction -1 2.30186e-007 8.31532e-007
    length 2.93387
    axis 0 0 0 xyz
  end
  begin
    id 22
    name RightUpLeg
    direction -1.82966e-007 -1 1.56832e-007
    length 17.3336
    axis -3.4909 -0.000906625 0.00028951 xyz
    dof rx ry rz
  end
  begin
    id 23
    name RightLeg
    direction -1.82786e-007 -1 -1.80317e-007
    length 14.9995
    axis 3.68513 0.0193739 -0.131021 xyz
    dof rx ry rz
  end
  begin
    id 24
    name RightFoot
    direction 8.31721e-007 -4.63324e-011 1
    length 6.74421
    axis 4.81691e-005 -0.120479 -0.188785 xyz
    dof rx ry rz
  end
  begin
    id 25
    name RightToes
    direction 0.00124746 -0.014064 0.9999
    length 3.85082
    axis 0.000481921 0.542163 -0.142575 xyz
    dof rx ry rz
  end
:hierarchy
  begin
    root LeftUpLegDummy SpineDummy RightUpLegDummy
    LeftUpLegDummy LeftUpLeg
    LeftUpLeg LeftLeg
    LeftLeg LeftFoot
    LeftFoot LeftToes
    SpineDummy Spine
    Spine Spine1
    Spine1 RightShoulderDummy LeftShoulder1Dummy HEadDummy
    RightShoulderDummy RightShoulder
    RightShoulder RightArm
    RightArm RightForeArm
    RightForeArm RightHand
    LeftShoulder1Dummy LeftShoulder1
    LeftShoulder1 LeftArm
    LeftArm LeftForeArm
    LeftForeArm LeftHand
    HEadDummy HEad
    RightUpLegDummy RightUpLeg
    RightUpLeg RightLeg
    RightLeg RightFoot
    RightFoot RightToes
  end

:SAMPLES-PER-SECOND 30
:FULLY-SPECIFIED
:DEGREES
50
root  3.87952 33.8945 -0.540133 -0.409501 -19.1987 3.6243
LeftUpLeg  -3.89715 17.736 0.0655638
LeftLeg  18.6728 16.2929 4.29417
LeftFoot  -5.05356 -0.0668276 -1.50828
LeftToes  -9.73484 8.556e-007 1.17171e-007
Spine  1.71645 -6.39533 2.9622
Spine1  3.22006 -12.6614 5.51912
RightShoulder  0.0611171 4.20729 9.35349
RightArm  -32.8438 -13.8199 66.1478
RightForeArm  27.8039 15.4295 2.78542
RightHand  1.32734 -13.6375 -10.7533
LeftShoulder1  -0.0256439 -2.01617 1.28223
LeftArm  32.5606 -31.4545 -92.4235
LeftForeArm  120.172 -50.5194 -167.383
LeftHand  0.643697 16.1234 4.17059
HEad  4.50117 -52.6108 10.571
RightUpLeg  -12.9299 2.52893 -10.0657
RightLeg  9.19627 26.0659 2.44255
RightFoot  9.79145 -0.381601 4.83005
RightToes  -38.1297 -0.203718 -0.304646
51
root  3.91926 33.889 -0.620191 -0.595973 -18.8287 3.7122
LeftUpLeg  -3.99449 17.6768 -0.032305
LeftLeg  18.8011 16.0158 4.26103
LeftFoot  -5.02201 -0.0645293 -1.47141
LeftToes  -9.688 8.556e-007 1.17171e-007
Spine  1.75643 -6.33806 2.8611
Spine1  3.31354 -12.5445 5.31367
RightShoulder  0.0601977 4.26547 9.28683
RightArm  -32.9458 -13.9218 66.483
RightForeArm  27.8902 15.3565 2.77154
RightHand  1.33198 -13.6048 -10.769
LeftShoulder1  -0.025408 -1.94943 1.27053
LeftArm  32.421 -31.4099 -92.2761
LeftForeArm  120.336 -50.482 -167.399
LeftHand  0.64673 16.002 4.22698
HEad  4.77494 -52.449 10.3497
RightUpLeg  -12.8405 2.52945 -10.2199
RightLeg  9.18798 25.7396 2.41032
RightFoot  9.91073 -0.385273 4.81856
RightToes  -38.3129 -0.205054 -0.30606
52
root  3.95595 33.8833 -0.707172 -0.820149 -18.4722 3.80759
LeftUpLeg  -4.07053 17.6231 -0.122504
LeftLeg  18.9507 15.7666 4.24003
LeftFoot  -5.00388 -0.0629915 -1.44155
LeftToes  -9.6303 8.556e-007 1.17171e-007
Spine  1.8098 -6.29396 2.75896
Spine1  3.43374 -12.4568 5.10895
RightShoulder  0.0588228 4.27984 9.20545
RightArm  -33.1276 -14.0838 66.8531
RightForeArm  27.8708 15.3628 2.77275
RightHand  1.33303 -13.6225 -10.7483
LeftShoulder1  -0.024866 -1.93008 1.23342
LeftArm  32.1162 -31.3446 -92.0853
LeftForeArm  120.722 -50.4973 -167.391
LeftHand  0.639288 15.8805 4.20931
HEad  5.08574 -52.2781 10.0878
RightUpLeg  -12.7223 2.50902 -10.3653
RightLeg  9.16426 25.45 2.37465
RightFoot  10.0655 -0.392286 4.8295
RightToes  -38.5036 -0.206742 -0.307507
53
root  3.99354 33.8765 -0.806962 -1.03528 -18.2189 3.89629
LeftUpLeg  -4.18583 17.4739 -0.230253
LeftLeg  19.1463 15.6648 4.2699
LeftFoot  -4.99545 -0.0627848 -1.42986
LeftToes  -9.42327 8.556e-007 1.17171e-007
Spine  1.88385 -6.25083 2.67188
Spine1  3.59321 -12.3751 4.93358
RightShoulder  0.0567503 4.28752 9.11834
RightArm  -33.2679 -14.2843 67.2258
RightForeArm  27.8036 15.5052 2.79977
RightHand  1.33466 -13.6126 -10.7725
LeftShoulder1  -0.0239854 -1.92384 1.13093
LeftArm  31.6523 -31.3114 -91.8619
LeftForeArm  121.069 -50.5265 -167.376
LeftHand  0.627119 15.7668 4.155
HEad  5.38975 -51.8906 9.78236
RightUpLeg  -12.66 2.682 -10.5051
RightLeg  9.1425 25.0596 2.33116
RightFoot  10.2311 -0.398002 4.82091
RightToes  -38.5842 -0.208583 -0.308885
54
root  4.03827 33.8654 -0.925142 -1.29651 -18.0738 4.00577
LeftUpLeg  -4.35627 17.5002 -0.344079
LeftLeg  19.4847 15.5175 4.32791
LeftFoot  -5.03912 -0.0629394 -1.43028
LeftToes  -9.18959 8.556e-007 1.17171e-007
Spine  1.99395 -6.22312 2.56408
Spine1  3.82453 -12.3298 4.71651
RightShoulder  0.0528916 4.28775 8.97605
RightArm  -33.4042 -14.5317 67.7496
RightForeArm  27.7028 15.784 2.85277
RightHand  1.33318 -13.5612 -10.8025
LeftShoulder1  -0.0227337 -1.94692 0.952382
LeftArm  30.8689 -31.3803 -91.5186
LeftForeArm  121.573 -50.6321 -167.326
LeftHand  0.627238 15.736 4.16482
HEad  5.62229 -51.2758 9.60636
RightUpLeg  -12.5949 2.84923 -10.6526
RightLeg  9.04622 24.8137 2.26895
RightFoot  10.4914 -0.413896 4.88301
RightToes  -38.9477 -0.210374 -0.310097
55
root  4.09355 33.854 -1.09281 -1.60693 -18.1198 4.14017
LeftUpLeg  -4.63093 17.5375 -0.478798
LeftLeg  20.0093 15.5174 4.47888
LeftFoot  -5.05099 -0.0634768 -1.43909
LeftToes  -9.12223 8.556e-007 1.17171e-007
Spine  2.1927 -6.2025 2.40496
Spine1  4.23282 -12.3102 4.39167
RightShoulder  0.0471942 4.17265 8.83892
RightArm  -33.2882 -14.7789 68.516
RightForeArm  27.5632 16.4068 2.97166
RightHand  1.31475 -13.4668 -10.7265
LeftShoulder1  -0.0210784 -2.07887 0.838581
LeftArm  29.6603 -31.4476 -90.9659
LeftForeArm  121.877 -50.8987 -167.204
LeftHand  0.605179 15.609 4.04149
HEad  5.06703 -50.2885 10.0598
RightUpLeg  -12.6614 3.39208 -10.8182
RightLeg  9.01067 24.3782 2.21664
RightFoot  10.8641 -0.43478 4.947
RightToes  -39.2623 -0.211915 -0.31104
56
root  4.16049 33.8219 -1.35252 -1.99634 -18.4284 4.2259
LeftUpLeg  -5.33319 17.5969 -0.581511
LeftLeg  21.3418 15.658 4.90877
LeftFoot  -5.36222 -0.0729869 -1.55852
LeftToes  -8.22804 8.556e-007 1.17171e-007
Spine  2.72111 -6.24818 2.18106
Spine1  5.30318 -12.4426 3.9001
RightShoulder  0.0405978 4.1078 8.66499
RightArm  -32.8324 -14.4389 69.7282
RightForeArm  27.3349 17.437 3.17013
RightHand  1.27341 -13.4068 -10.4277
LeftShoulder1  -0.0170227 -2.43226 0.975193
LeftArm  27.3871 -32.0847 -89.848
LeftForeArm  122.025 -51.1795 -167.075
LeftHand  0.576057 15.5037 3.85823
HEad  2.96948 -48.535 11.6166
RightUpLeg  -13.1328 4.17885 -10.9015
RightLeg  9.58997 23.9723 2.41908
RightFoot  11.1546 -0.4494 4.97689
RightToes  -39.1034 -0.213005 -0.311617
57
root  4.24858 33.7616 -1.73217 -2.43687 -18.9887 4.1973
LeftUpLeg  -6.3693 17.6773 -0.586179
LeftLeg  23.1713 15.9333 5.54654
LeftFoot  -5.90972 -0.0917456 -1.77727
LeftToes  -6.77942 8.556e-007 1.17171e-007
Spine  3.54351 -6.46001 1.89611
Spine1  6.96271 -12.9255 3.26399
RightShoulder  0.0315028 4.12909 8.37888
RightArm  -31.6882 -13.4059 71.4053
RightForeArm  26.8235 18.8728 3.45078
RightHand  1.23545 -13.2118 -10.2628
LeftShoulder1  -0.0104996 -2.9454 1.13173
LeftArm  23.8096 -33.246 -88.1327
LeftForeArm  122.895 -51.6805 -166.837
LeftHand  0.544576 15.0844 3.73969
HEad  0.801877 -45.9435 13.1642
RightUpLeg  -14.1091 4.93029 -10.8243
RightLeg  10.8722 23.8737 2.93437
RightFoot  11.5107 -0.47692 5.10645
RightToes  -39.1394 -0.213441 -0.311726
58
root  4.35749 33.6955 -2.2201 -2.75933 -19.9116 4.29267
LeftUpLeg  -7.5882 18.229 -0.707506
LeftLeg  24.6541 16.1326 6.07663
LeftFoot  -6.16897 -0.102841 -1.9083
LeftToes  -5.57658 8.556e-007 1.17171e-007
Spine  4.39684 -6.71814 1.47279
Spine1  8.69962 -13.4859 2.34227
RightShoulder  0.0271025 3.7783 8.0568
RightArm  -29.7587 -12.2359 73.4979
RightForeArm  26.3611 21.3637 3.94978
RightHand  1.19349 -13.0902 -9.99935
LeftShoulder1  -0.00340183 -3.67004 1.4247
LeftArm  19.6784 -34.0279 -85.9677
LeftForeArm  123.768 -52.1064 -166.629
LeftHand  0.583016 14.8149 4.11033
HEad  -0.179023 -42.9534 13.2648
RightUpLeg  -15.5193 5.8469 -10.8369
RightLeg  12.0642 23.999 3.4412
RightFoot  12.2755 -0.548142 5.47121
RightToes  -39.0657 -0.213024 -0.311267
59
root  4.49111 33.6344 -2.81171 -2.81962 -21.5062 4.57896
LeftUpLeg  -8.93165 19.8896 -0.964319
LeftLeg  25.2976 16.0472 6.24801
LeftFoot  -5.75454 -0.0901687 -1.79391
LeftToes  -5.7036 8.556e-007 1.17171e-007
Spine  5.24168 -7.09183 0.889477
Spine1  10.4423 -14.2656 1.10565
RightShoulder  0.0267068 3.41667 7.72089
RightArm  -27.3274 -10.7282 75.9489
RightForeArm  26.3316 23.5964 4.41215
RightHand  1.13942 -12.9508 -9.63884
LeftShoulder1  0.00555395 -3.82982 1.58656
LeftArm  15.5342 -34.5035 -83.3192
LeftForeArm  123.964 -52.0714 -166.645
LeftHand  0.662157 14.7378 4.7446
HEad  -0.34269 -39.6038 12.0649
RightUpLeg  -17.3149 6.49355 -10.8916
RightLeg  12.5401 25.028 3.78471
RightFoot  13.7254 -0.724552 6.39201
RightToes  -39.1277 -0.211552 -0.310142
60
root  4.63758 33.6069 -3.48251 -2.37428 -23.9201 5.30015
LeftUpLeg  -10.4451 21.9566 -1.79233
LeftLeg  24.533 16.4445 6.15126
LeftFoot  -4.41565 -0.0547947 -1.42122
LeftToes  -7.05815 8.556e-007 1.17171e-007
Spine  5.88152 -7.22027 0.0760271
Spine1  11.8231 -14.4916 -0.566825
RightShoulder  0.028092 2.88325 7.76826
RightArm  -24.1311 -9.60712 78.0976
RightForeArm  25.9721 25.8004 4.88501
RightHand  1.07229 -12.7278 -9.21743
LeftShoulder1  0.0116612 -3.80889 1.52241
LeftArm  11.8208 -34.6446 -80.5871
LeftForeArm  124.936 -51.4997 -166.913
LeftHand  0.786859 14.4783 5.81598
HEad  -0.131284 -36.5223 10.5652
RightUpLeg  -19.7718 5.97615 -10.9559
RightLeg  12.291 27.8584 4.06203
RightFoot  15.7104 -1.08819 8.25246
RightToes  -38.4919 -0.206549 -0.306445
61
root  4.74175 33.6351 -4.15876 -1.36613 -26.7913 5.84513
LeftUpLeg  -11.9422 23.8068 -2.62342
LeftLeg  22.5519 17.5543 5.88317
LeftFoot  -2.67851 -0.021714 -0.928785
LeftToes  -8.09984 8.556e-007 1.17171e-007
Spine  6.20491 -7.10512 -0.649744
Spine1  12.5577 -14.2017 -2.02394
RightShoulder  0.0283131 2.57435 7.85624
RightArm  -21.1557 -9.46813 79.6059
RightForeArm  26.6496 27.8503 5.34114
RightHand  0.994239 -12.3809 -8.77253
LeftShoulder1  0.0134045 -3.33827 0.969318
LeftArm  9.00683 -34.2176 -78.7892
LeftForeArm  125.829 -50.8349 -167.216
LeftHand  0.895944 14.4583 6.68135
HEad  1.32225 -33.8759 7.689
RightUpLeg  -22.7496 2.88973 -9.80999
RightLeg  11.9056 32.2181 4.42628
RightFoot  18.2979 -1.78641 11.4358
RightToes  -41.2321 -0.2284 -0.321976
62
root  4.7904 33.7473 -4.73255 0.264843 -29.4988 5.8535
LeftUpLeg  -13.1569 25.5147 -3.12361
LeftLeg  19.4214 18.6584 5.14999
LeftFoot  -0.464506 -0.000794111 -0.19591
LeftToes  -9.66891 8.556e-007 1.17171e-007
Spine  6.24892 -6.70417 -1.06215
Spine1  12.6835 -13.3549 -2.80079
RightShoulder  0.0253994 2.21889 7.98498
RightArm  -20.2381 -10.0109 80.0303
RightForeArm  28.3421 28.6874 5.53195
RightHand  0.846073 -11.1676 -8.26308
LeftShoulder1  0.0142308 -2.54709 0.106737
LeftArm  8.25456 -33.511 -78.3655
LeftForeArm  126.773 -50.0977 -167.543
LeftHand  1.04876 14.3965 7.91585
HEad  2.97923 -31.385 4.59694
RightUpLeg  -26.7695 -4.11598 -6.28479
RightLeg  15.2756 35.5861 6.83267
RightFoot  18.9215 -2.21098 13.5879
RightToes  -49.3567 -0.297203 -0.361653
63
root  4.74049 33.9068 -5.20927 2.32833 -31.0315 4.85484
LeftUpLeg  -13.9632 25.8586 -2.70446
LeftLeg  15.9878 19.9113 4.24709
LeftFoot  1.72765 -0.00908879 0.602781
LeftToes  -10.6268 8.556e-007 1.17171e-007
Spine  6.22704 -6.29938 -0.989407
Spine1  12.6165 -12.5871 -2.5444
RightShoulder  0.0193267 2.12483 7.93026
RightArm  -22.1241 -11.2686 79.5889
RightForeArm  26.633 28.8325 5.56613
RightHand  0.893367 -11.74 -8.29847
LeftShoulder1  0.0166705 -1.92892 -0.306985
LeftArm  8.67324 -32.4981 -79.0956
LeftForeArm  127.208 -49.2947 -167.889
LeftHand  1.20435 14.2941 9.20839
HEad  4.20269 -29.128 2.0503
RightUpLeg  -29.3463 -6.01985 -4.01982
RightLeg  19.0597 34.3643 8.84715
RightFoot  15.1894 -1.36668 10.6003
RightToes  -51.7136 -0.318146 -0.3713
